<svg id="svg" version="1.1" xmlns="http://www.w3.org/2000/svg" xmlns:xlink="http://www.w3.org/1999/xlink" width="400" height="403.7854889589905" viewBox="0, 0, 400,403.7854889589905"><g id="svgg"><path id="path0" d="M133.869 72.082 C 99.069 106.869,69.037 136.751,67.130 138.486 C 65.223 140.221,63.278 141.988,62.808 142.412 C 62.338 142.837,61.334 144.185,60.578 145.409 C 59.822 146.633,59.013 147.640,58.781 147.646 C 57.967 147.670,53.755 151.782,49.834 156.381 C 47.656 158.936,44.570 161.854,42.976 162.865 C 41.383 163.875,39.869 165.268,39.614 165.959 C 39.358 166.651,38.173 167.792,36.981 168.495 C 35.789 169.199,34.659 170.175,34.471 170.665 C 34.283 171.154,32.975 172.284,31.564 173.175 C 30.152 174.066,27.990 176.197,26.759 177.910 C 25.528 179.624,23.333 181.880,21.882 182.925 C 20.430 183.969,17.954 186.448,16.378 188.434 C 14.802 190.419,11.770 193.337,9.639 194.918 C 5.843 197.735,5.765 197.852,5.722 200.856 C 5.676 204.088,8.484 208.833,10.443 208.833 C 11.084 208.833,159.204 356.299,167.508 365.204 C 168.202 365.948,171.860 369.468,175.638 373.026 C 179.415 376.584,184.218 381.483,186.310 383.912 C 188.402 386.341,190.913 388.896,191.891 389.590 C 192.869 390.284,193.674 391.202,193.680 391.630 C 193.708 393.644,197.300 396.521,198.993 395.886 C 199.897 395.546,242.683 353.391,294.074 302.208 C 345.464 251.025,388.175 208.917,388.987 208.635 C 390.659 208.053,392.238 202.428,391.453 199.846 C 390.477 196.632,201.477 8.833,199.218 8.833 C 197.303 8.833,192.191 13.780,133.869 72.082 M195.201 21.818 C 195.411 22.367,195.584 42.681,195.584 66.960 L 195.584 111.104 199.211 110.915 L 202.839 110.726 203.155 66.435 C 203.401 31.786,203.645 21.970,204.272 21.343 C 205.187 20.428,226.548 41.345,250.884 66.986 C 258.352 74.854,265.538 82.037,266.853 82.949 C 268.168 83.860,269.935 85.577,270.780 86.765 C 271.625 87.952,273.281 89.574,274.461 90.369 C 275.641 91.164,277.843 93.442,279.356 95.432 C 280.868 97.422,284.008 100.615,286.334 102.529 C 288.659 104.442,291.266 107.163,292.127 108.577 C 292.987 109.990,296.474 113.578,299.875 116.551 C 303.276 119.523,306.460 122.730,306.950 123.678 C 307.439 124.625,309.823 127.111,312.247 129.202 C 314.671 131.293,317.591 134.096,318.737 135.430 C 319.883 136.764,321.388 138.269,322.082 138.776 C 322.776 139.282,326.609 143.080,330.599 147.215 C 334.590 151.350,347.919 164.909,360.220 177.346 C 372.521 189.783,382.384 200.161,382.137 200.408 C 381.890 200.654,371.745 200.876,359.591 200.901 C 334.311 200.953,335.118 200.739,336.842 206.940 L 337.280 208.517 357.126 208.833 C 371.189 209.056,376.972 209.355,376.972 209.856 C 376.972 210.628,365.272 222.795,355.790 231.884 C 352.519 235.020,346.293 241.317,341.956 245.878 C 337.618 250.439,333.298 254.505,332.355 254.913 C 331.413 255.322,330.483 256.155,330.289 256.765 C 330.096 257.375,327.176 260.386,323.802 263.457 C 316.717 269.903,302.880 283.297,298.177 288.262 C 289.515 297.406,205.492 380.782,204.774 380.945 C 203.265 381.290,203.172 378.519,203.163 333.086 C 203.154 282.316,203.463 285.438,198.580 286.884 L 195.584 287.771 195.574 334.579 C 195.568 363.491,195.332 381.750,194.957 382.334 C 194.475 383.085,176.431 365.365,107.769 296.714 C 60.150 249.102,21.413 209.922,21.687 209.648 C 21.961 209.373,30.324 209.006,40.272 208.833 L 58.360 208.517 58.554 205.107 C 58.819 200.440,59.604 200.609,37.855 200.656 C 13.522 200.709,15.142 200.767,15.142 199.837 C 15.142 198.853,193.122 20.820,194.106 20.820 C 194.498 20.820,194.990 21.269,195.201 21.818 M247.108 134.175 C 246.877 134.406,246.688 136.109,246.688 137.960 C 246.688 139.811,246.475 141.335,246.215 141.347 C 237.613 141.758,236.406 142.238,233.596 146.366 C 230.876 150.362,232.163 157.216,236.082 159.605 C 238.595 161.137,247.936 161.474,249.098 160.074 C 249.621 159.444,250.185 141.013,249.880 134.543 C 249.840 133.716,247.833 133.450,247.108 134.175 M264.736 134.752 C 264.526 135.301,264.353 141.258,264.353 147.989 L 264.353 160.228 265.947 160.628 C 272.583 162.294,278.695 159.769,279.991 154.828 C 282.067 146.907,279.204 141.731,272.699 141.645 C 268.064 141.583,267.508 141.187,267.508 137.944 C 267.508 134.502,265.652 132.365,264.736 134.752 M110.691 135.824 C 109.612 138.636,110.761 160.568,111.987 160.568 C 113.099 160.568,113.287 160.042,113.565 156.151 L 113.880 151.735 117.072 151.413 C 125.122 150.602,129.179 142.302,124.038 137.161 C 121.683 134.806,111.474 133.783,110.691 135.824 M120.324 138.833 C 125.271 140.557,123.021 147.100,117.152 148.053 C 114.333 148.510,113.423 147.029,113.690 142.414 C 113.891 138.940,113.729 139.095,118.045 138.245 C 118.253 138.204,119.279 138.468,120.324 138.833 M133.935 142.026 C 127.191 143.971,125.849 157.334,132.134 159.960 C 136.760 161.893,141.756 160.546,144.287 156.682 C 146.929 152.652,145.097 143.357,141.466 142.364 C 138.755 141.622,135.797 141.489,133.935 142.026 M184.124 141.920 C 178.863 142.945,177.394 145.534,178.115 152.513 C 178.747 158.644,182.827 161.731,189.345 161.012 C 195.387 160.346,195.337 158.136,189.274 157.853 C 185.853 157.693,184.886 157.386,183.438 156.000 C 180.976 153.641,181.099 153.545,187.142 153.080 C 190.133 152.851,192.830 152.508,193.136 152.319 C 194.026 151.769,193.776 147.104,192.748 145.117 C 190.956 141.651,189.078 140.955,184.124 141.920 M200.693 143.312 C 199.859 145.703,199.760 160.030,200.574 160.533 C 202.437 161.684,203.044 160.097,203.256 153.530 C 203.496 146.088,203.812 145.537,208.257 144.786 C 213.606 143.882,211.424 141.325,205.304 141.325 C 201.476 141.325,201.369 141.371,200.693 143.312 M216.645 142.532 C 205.996 147.368,210.807 161.948,222.713 160.922 C 228.616 160.412,228.833 158.212,223.028 157.729 C 213.106 156.902,213.762 152.709,223.817 152.688 L 227.129 152.681 227.129 149.466 C 227.129 142.559,222.837 139.720,216.645 142.532 M296.956 141.798 C 296.802 142.058,295.760 144.485,294.639 147.190 C 292.442 152.497,291.596 152.926,290.402 149.343 C 289.244 145.868,286.430 141.956,285.090 141.956 C 283.326 141.956,283.608 143.466,286.738 150.796 C 288.742 155.487,289.569 158.285,289.578 160.410 C 289.590 163.389,289.357 163.796,286.108 166.482 C 284.590 167.737,286.242 169.316,288.485 168.753 C 291.141 168.086,292.758 165.765,293.699 161.266 C 294.181 158.965,295.609 154.602,296.872 151.570 C 299.672 144.852,300.154 142.640,298.978 141.896 C 297.900 141.213,297.318 141.185,296.956 141.798 M147.424 142.376 C 146.455 143.345,151.621 157.069,154.099 160.111 C 155.224 161.490,156.843 159.317,158.731 153.894 C 160.486 148.851,161.691 147.708,162.501 150.315 C 165.999 161.570,168.502 162.757,171.815 154.732 C 176.370 143.699,176.700 141.956,174.230 141.956 C 172.770 141.956,171.923 142.946,171.357 145.312 C 170.242 149.974,167.018 152.784,166.340 149.685 C 166.131 148.730,165.101 146.601,164.051 144.953 C 161.343 140.700,160.184 140.941,157.998 146.215 C 155.371 152.552,154.416 153.456,153.666 150.315 C 152.451 145.228,148.983 140.817,147.424 142.376 M222.806 147.049 L 223.845 149.211 219.734 149.400 C 214.820 149.625,214.463 149.390,216.454 147.247 C 219.496 143.972,221.300 143.916,222.806 147.049 M245.584 146.469 C 247.222 148.405,247.121 154.772,245.426 156.467 C 242.776 159.117,237.673 157.444,235.986 153.371 C 233.625 147.671,241.692 141.870,245.584 146.469 M275.932 147.895 C 277.552 150.368,277.238 152.965,275.014 155.499 C 271.268 159.764,267.508 157.556,267.508 151.092 C 267.508 144.456,272.449 142.581,275.932 147.895 M139.940 146.557 C 143.159 149.984,142.891 154.226,139.295 156.744 C 136.180 158.926,131.230 155.544,131.230 151.234 C 131.230 146.393,136.918 143.340,139.940 146.557 M188.598 146.773 C 190.552 149.257,190.278 149.527,185.804 149.527 C 181.157 149.527,180.483 148.650,183.438 146.445 C 185.768 144.707,187.036 144.788,188.598 146.773 M97.592 185.772 C 88.498 189.016,86.103 200.213,92.985 207.317 L 96.286 210.726 102.064 210.726 C 107.196 210.726,107.918 210.585,108.517 209.464 C 109.743 207.174,108.302 205.679,104.867 205.676 C 93.855 205.667,92.518 191.286,103.404 189.934 C 106.881 189.503,108.032 188.023,106.343 186.157 C 104.949 184.617,101.284 184.456,97.592 185.772 M118.927 186.317 C 110.546 190.348,109.036 200.961,115.887 207.681 C 121.180 212.873,130.964 211.072,134.482 204.258 C 140.371 192.850,130.063 180.961,118.927 186.317 M139.633 185.647 C 139.292 186.106,139.194 191.442,139.398 198.423 L 139.748 210.410 141.839 210.611 C 144.955 210.910,145.931 209.772,145.592 206.237 C 145.241 202.581,145.923 201.262,148.167 201.262 C 150.305 201.262,156.250 197.744,157.903 195.500 C 159.574 193.231,158.889 189.076,156.439 186.626 C 154.434 184.621,140.975 183.837,139.633 185.647 M160.534 185.666 C 160.363 186.111,160.301 191.860,160.396 198.442 L 160.568 210.410 162.830 210.600 C 165.782 210.847,166.447 209.941,166.684 205.349 C 166.877 201.596,166.878 201.593,169.085 201.223 C 178.838 199.586,183.189 190.222,176.060 186.215 C 173.164 184.588,161.111 184.161,160.534 185.666 M183.303 186.095 C 182.035 187.496,182.157 208.908,183.440 210.191 C 184.634 211.385,198.382 210.542,198.628 209.259 C 199.039 207.113,196.946 205.678,193.404 205.678 C 189.770 205.678,188.644 204.932,188.644 202.524 C 188.644 200.259,189.743 199.369,192.543 199.369 C 194.565 199.369,194.989 199.127,195.327 197.784 C 195.885 195.558,194.613 194.322,191.763 194.322 C 186.867 194.322,187.910 190.109,192.888 189.780 C 196.187 189.562,197.634 188.144,196.460 186.278 C 195.331 184.483,184.893 184.338,183.303 186.095 M202.298 188.736 C 201.589 195.516,201.815 209.134,202.650 209.968 C 205.071 212.390,208.202 209.989,208.202 205.710 C 208.202 200.327,210.144 199.992,212.959 204.890 C 215.541 209.382,216.981 210.727,219.195 210.716 C 222.418 210.700,223.214 209.857,221.991 207.755 C 221.427 206.786,220.757 205.000,220.502 203.785 C 220.246 202.571,219.674 200.866,219.230 199.996 C 218.516 198.596,218.597 198.197,219.934 196.526 C 221.681 194.343,221.900 191.341,220.508 188.651 C 218.795 185.337,217.433 184.858,209.729 184.858 L 202.703 184.858 202.298 188.736 M224.370 185.824 C 224.153 186.390,223.975 191.906,223.975 198.082 C 223.975 210.519,224.116 210.972,227.877 210.611 L 229.968 210.410 230.156 205.706 C 230.383 200.037,230.915 199.245,234.330 199.496 L 236.909 199.685 237.224 205.047 L 237.539 210.410 240.379 210.410 L 243.218 210.410 243.218 197.792 L 243.218 185.174 240.379 185.174 L 237.539 185.174 237.224 189.021 C 236.561 197.102,231.018 196.979,230.297 188.867 L 229.968 185.174 227.367 184.983 C 225.422 184.841,224.666 185.053,224.370 185.824 M251.189 185.411 C 249.993 186.185,249.314 207.299,250.419 209.362 C 251.438 211.267,264.656 211.219,265.860 209.306 C 267.204 207.171,265.612 206.026,260.818 205.678 C 256.838 205.390,256.449 205.236,256.257 203.879 C 255.818 200.780,256.647 199.369,258.905 199.369 C 263.907 199.369,264.333 194.808,259.365 194.442 C 254.562 194.087,255.713 190.156,260.729 189.781 C 263.693 189.559,265.085 188.053,263.968 186.278 C 263.191 185.042,252.841 184.340,251.189 185.411 M275.828 185.662 C 274.880 186.804,268.727 204.899,268.338 207.688 C 267.768 211.776,274.546 211.797,275.440 207.710 C 276.178 204.335,276.171 204.341,279.623 204.541 C 282.781 204.724,282.937 204.818,283.335 206.778 C 283.942 209.768,285.008 210.726,287.729 210.726 C 292.082 210.726,292.767 209.212,290.621 204.337 C 289.800 202.472,288.636 199.243,288.036 197.161 C 286.507 191.861,284.046 185.964,283.117 185.374 C 281.859 184.575,276.556 184.784,275.828 185.662 M295.621 186.383 C 294.742 189.499,294.434 208.775,295.248 209.755 C 296.329 211.057,303.634 211.057,307.325 209.755 C 317.994 205.990,319.304 190.473,309.330 186.009 C 305.371 184.238,296.155 184.489,295.621 186.383 M127.062 191.728 C 130.097 194.896,130.102 200.138,127.073 203.737 C 124.899 206.321,123.020 206.238,120.570 203.448 C 115.143 197.267,121.454 185.874,127.062 191.728 M150.789 191.167 C 152.443 192.822,152.384 193.337,150.352 194.935 C 147.894 196.868,146.106 196.413,145.855 193.789 C 145.472 189.798,148.050 188.428,150.789 191.167 M171.619 191.049 C 173.443 192.525,172.875 194.537,170.337 195.588 C 167.490 196.767,166.562 196.073,166.562 192.764 C 166.562 189.492,168.771 188.742,171.619 191.049 M213.314 191.093 C 215.149 192.579,214.237 195.312,211.695 195.950 C 209.212 196.573,208.202 195.871,208.202 193.521 C 208.202 189.947,210.532 188.840,213.314 191.093 M306.139 191.146 C 311.094 195.043,309.468 204.803,303.793 205.227 C 301.519 205.397,301.096 204.157,301.009 197.055 C 300.918 189.605,302.242 188.080,306.139 191.146 M280.126 195.231 C 280.126 196.078,280.410 196.946,280.757 197.161 C 282.167 198.032,281.362 199.369,279.428 199.369 C 277.819 199.369,277.544 199.171,277.895 198.265 C 278.130 197.658,278.479 196.380,278.672 195.426 C 279.106 193.277,280.126 193.140,280.126 195.231 M96.832 215.728 C 86.255 218.265,86.867 228.720,97.914 234.198 C 107.773 239.087,107.325 241.589,96.736 240.775 C 90.706 240.311,89.590 240.739,89.590 243.513 C 89.590 246.631,91.171 247.319,98.340 247.319 C 115.717 247.319,117.837 232.648,101.262 227.096 C 98.003 226.005,96.233 224.397,96.765 223.010 C 97.192 221.898,104.208 221.877,106.734 222.980 C 108.506 223.755,110.518 221.175,110.288 218.421 C 110.121 216.407,109.840 216.040,108.202 215.693 C 105.633 215.148,99.168 215.168,96.832 215.728 M126.025 215.577 C 124.345 216.016,124.681 217.592,127.413 222.085 C 133.571 232.213,133.952 233.218,134.341 240.379 L 134.700 247.003 137.539 247.003 L 140.379 247.003 140.695 240.379 C 140.987 234.269,141.174 233.484,143.109 230.284 C 144.263 228.375,146.321 224.970,147.682 222.716 C 150.532 217.998,150.812 216.095,148.738 215.540 C 144.462 214.394,141.652 215.799,141.023 219.397 C 140.795 220.700,140.106 222.723,139.493 223.891 L 138.377 226.015 136.686 223.130 C 135.756 221.544,134.813 219.310,134.591 218.167 C 134.025 215.260,130.878 214.309,126.025 215.577 M171.293 216.090 C 161.467 219.564,162.496 228.926,173.274 234.112 C 183.306 238.938,182.947 241.444,172.326 240.737 C 164.746 240.232,162.234 242.360,165.984 246.110 C 167.903 248.029,180.654 247.717,183.395 245.683 C 191.587 239.605,187.855 230.375,175.761 226.804 C 172.991 225.986,171.828 224.696,172.435 223.114 C 172.916 221.862,178.830 221.662,181.356 222.813 C 183.733 223.896,185.489 222.106,185.489 218.597 C 185.489 216.015,185.421 215.927,183.123 215.547 C 179.216 214.901,173.975 215.142,171.293 216.090 M201.091 215.856 C 197.557 217.834,200.317 222.082,205.136 222.082 C 209.885 222.082,209.796 221.828,209.590 234.700 C 209.390 247.244,209.460 247.477,213.312 247.202 L 216.088 247.003 216.134 235.605 C 216.190 221.637,216.049 222.082,220.433 222.082 C 225.394 222.082,225.868 221.778,225.868 218.587 C 225.868 216.526,225.597 215.782,224.763 215.548 C 222.713 214.973,202.192 215.240,201.091 215.856 M244.696 215.611 L 239.235 215.820 238.819 222.263 C 238.590 225.807,238.493 232.823,238.602 237.855 L 238.801 247.003 249.127 247.177 C 260.509 247.368,261.199 247.178,261.199 243.839 C 261.199 241.217,260.621 241.009,253.312 241.009 C 245.815 241.009,245.426 240.851,245.426 237.799 C 245.426 234.932,245.760 234.789,252.997 234.544 L 257.729 234.385 257.921 231.388 C 258.136 228.032,258.317 228.133,252.552 228.369 C 246.486 228.618,245.328 228.064,245.550 225.021 L 245.741 222.397 252.233 222.082 C 259.398 221.734,260.225 221.270,259.541 217.981 C 258.906 214.929,259.596 215.040,244.696 215.611 M300.797 215.931 C 299.675 216.797,297.438 222.106,295.612 228.233 C 294.966 230.402,294.269 232.172,294.064 232.167 C 292.829 232.135,292.046 230.436,290.141 223.659 L 288.013 216.088 282.808 215.905 L 277.603 215.722 277.603 220.023 C 277.603 222.991,277.281 224.784,276.567 225.804 C 275.851 226.826,275.504 228.770,275.443 232.096 C 275.395 234.743,274.949 238.698,274.453 240.885 C 273.297 245.982,273.819 246.934,277.922 247.199 C 281.908 247.458,281.998 247.249,282.009 237.734 C 282.015 233.331,282.280 229.566,282.599 229.369 C 283.189 229.005,287.071 238.507,288.317 243.365 C 289.258 247.035,294.371 248.973,296.463 246.453 C 297.410 245.312,300.052 237.498,300.613 234.177 C 301.006 231.848,301.886 230.381,302.513 231.009 C 302.634 231.131,303.174 234.614,303.713 238.750 C 304.848 247.464,304.844 247.457,308.903 247.199 L 311.987 247.003 311.864 242.271 C 311.397 224.316,310.732 216.934,309.501 216.036 C 307.985 214.930,302.184 214.860,300.797 215.931 " stroke="none" fill="#000000" fill-rule="evenodd"></path></g></svg>