<svg id="svg" version="1.1" xmlns="http://www.w3.org/2000/svg" xmlns:xlink="http://www.w3.org/1999/xlink" width="400" height="159.05882352941174" viewBox="0, 0, 400,159.05882352941174"><g id="svgg"><path id="path0" d="M130.833 79.500 L 130.833 135.500 132.583 135.500 L 134.333 135.500 134.333 79.500 L 134.333 23.500 132.583 23.500 L 130.833 23.500 130.833 79.500 M166.922 23.634 C 166.873 23.682,166.702 23.738,166.542 23.756 C 165.660 23.859,164.815 24.062,164.736 24.189 C 164.687 24.268,164.539 24.333,164.406 24.333 C 164.184 24.333,163.499 24.645,162.000 25.428 C 161.203 25.844,159.492 27.160,159.385 27.439 C 159.337 27.564,159.221 27.667,159.127 27.667 C 159.033 27.667,158.807 27.835,158.626 28.042 C 158.310 28.401,157.221 29.731,156.956 30.082 C 156.211 31.067,155.167 33.156,155.167 33.661 C 155.167 33.837,155.096 34.024,155.011 34.077 C 154.925 34.130,154.852 34.303,154.850 34.462 C 154.847 34.620,154.737 35.200,154.604 35.750 C 154.403 36.588,154.361 39.763,154.347 55.323 C 154.334 70.621,154.291 73.957,154.105 74.240 C 153.711 74.841,152.609 75.843,151.833 76.304 L 151.083 76.750 161.250 76.793 C 167.087 76.818,171.843 76.769,172.417 76.678 C 173.859 76.450,174.703 76.250,175.083 76.046 C 175.267 75.948,175.735 75.736,176.125 75.575 C 176.515 75.414,176.833 75.232,176.833 75.169 C 176.833 75.107,176.929 75.056,177.046 75.056 C 177.332 75.056,178.917 73.929,179.804 73.095 C 180.201 72.722,180.595 72.392,180.679 72.361 C 180.764 72.331,180.833 72.217,180.833 72.110 C 180.833 72.002,180.980 71.822,181.159 71.710 C 183.206 70.432,184.975 65.432,184.993 60.875 L 185.000 59.000 179.855 59.000 L 174.709 59.000 174.620 60.792 C 174.511 62.964,174.472 63.142,173.882 64.157 C 173.488 64.836,171.833 66.374,171.833 66.062 C 171.833 66.005,171.740 66.035,171.625 66.127 C 171.197 66.471,169.576 66.667,167.153 66.667 L 164.657 66.667 164.703 52.042 C 164.753 36.335,164.711 37.164,165.538 35.936 C 167.165 33.524,170.831 33.160,173.025 35.192 C 174.162 36.245,174.538 37.256,174.631 39.513 L 174.712 41.500 179.856 41.500 L 185.000 41.500 184.926 38.958 C 184.837 35.859,184.861 36.112,184.551 35.000 C 184.139 33.522,183.487 31.844,183.222 31.579 C 183.087 31.444,183.021 31.333,183.075 31.333 C 183.165 31.333,182.779 30.660,182.454 30.250 C 182.381 30.158,182.137 29.825,181.911 29.509 C 181.685 29.194,181.500 28.999,181.500 29.076 C 181.500 29.153,181.285 28.924,181.021 28.567 C 179.929 27.083,176.275 24.468,175.568 24.664 C 175.505 24.681,175.406 24.617,175.347 24.522 C 175.251 24.367,174.637 24.168,172.667 23.652 C 172.061 23.493,167.078 23.477,166.922 23.634 M200.750 23.605 C 199.199 23.944,197.711 24.384,197.210 24.652 C 197.049 24.738,196.781 24.851,196.614 24.903 C 196.448 24.955,196.358 25.072,196.415 25.164 C 196.472 25.256,196.412 25.289,196.280 25.239 C 196.150 25.188,195.921 25.270,195.771 25.419 C 195.622 25.568,195.499 25.629,195.497 25.554 C 195.496 25.478,195.440 25.493,195.372 25.587 C 195.305 25.681,195.039 25.892,194.781 26.057 C 193.969 26.573,193.620 26.879,192.208 28.312 C 191.452 29.079,190.833 29.811,190.833 29.937 C 190.833 30.063,190.758 30.167,190.667 30.167 C 190.575 30.167,190.500 30.255,190.500 30.362 C 190.500 30.469,190.395 30.675,190.267 30.820 C 189.491 31.694,188.807 33.450,188.321 35.810 C 187.841 38.144,187.834 64.559,188.314 64.262 C 188.370 64.227,188.424 64.473,188.433 64.808 C 188.467 66.087,189.710 69.157,190.569 70.083 C 190.806 70.339,191.000 70.600,191.000 70.663 C 191.000 70.726,191.306 71.109,191.681 71.514 C 192.055 71.919,192.411 72.327,192.472 72.421 C 192.643 72.684,194.593 74.333,194.733 74.333 C 194.801 74.333,194.974 74.450,195.117 74.593 C 195.259 74.736,195.483 74.812,195.613 74.761 C 195.749 74.710,195.806 74.743,195.746 74.840 C 195.626 75.034,197.586 75.973,199.083 76.439 C 201.736 77.264,209.647 76.720,210.971 75.622 C 211.097 75.517,211.316 75.414,211.458 75.393 C 211.600 75.373,211.770 75.269,211.835 75.164 C 211.901 75.058,211.989 74.997,212.032 75.027 C 212.721 75.523,217.176 70.985,218.373 68.568 C 219.921 65.443,219.897 65.713,219.959 50.500 C 220.013 36.960,219.962 35.682,219.301 34.024 C 219.204 33.782,219.071 33.433,219.005 33.250 C 218.771 32.602,217.915 30.916,217.792 30.861 C 217.723 30.831,217.667 30.732,217.667 30.642 C 217.667 29.891,213.329 25.667,212.558 25.667 C 212.435 25.667,212.333 25.604,212.333 25.527 C 212.333 24.352,203.806 22.937,200.750 23.605 M224.000 23.559 C 224.000 23.601,224.319 23.824,224.708 24.055 C 225.325 24.422,225.928 24.962,226.909 26.030 C 227.221 26.369,227.312 74.443,227.000 74.250 C 226.908 74.193,226.833 74.224,226.833 74.319 C 226.833 74.492,225.401 76.000,225.237 76.000 C 225.188 76.000,224.873 76.188,224.536 76.417 L 223.923 76.833 232.316 76.833 L 240.710 76.833 239.590 76.017 C 238.974 75.568,238.290 74.935,238.069 74.609 L 237.667 74.018 237.667 64.698 L 237.667 55.378 241.625 55.293 C 244.174 55.239,245.761 55.137,246.083 55.005 C 246.358 54.893,246.985 54.695,247.476 54.565 C 248.437 54.310,250.552 53.242,251.500 52.532 C 252.272 51.954,254.833 49.381,254.833 49.183 C 254.833 49.098,254.899 49.003,254.978 48.972 C 255.358 48.827,257.032 45.625,257.099 44.917 C 257.108 44.825,257.208 44.525,257.323 44.250 C 258.512 41.389,257.957 34.956,256.241 31.721 C 255.265 29.881,252.871 27.021,252.500 27.250 C 252.408 27.307,252.333 27.265,252.333 27.157 C 252.333 26.887,251.374 26.064,250.667 25.728 C 250.346 25.575,250.046 25.405,250.000 25.348 C 249.758 25.050,247.900 24.266,246.500 23.871 C 245.625 23.624,224.000 23.324,224.000 23.559 M262.162 23.745 C 262.279 23.885,262.444 24.000,262.530 24.000 C 262.705 24.000,264.052 25.013,264.139 25.209 C 264.170 25.279,264.282 25.285,264.389 25.224 C 264.496 25.163,264.530 25.172,264.466 25.244 C 264.401 25.316,264.532 25.616,264.757 25.911 L 265.167 26.448 265.167 50.167 L 265.167 73.885 264.714 74.484 C 264.089 75.312,264.006 75.390,262.911 76.156 L 261.945 76.833 270.327 76.833 L 278.710 76.833 277.609 76.031 C 277.004 75.590,276.282 74.915,276.004 74.532 L 275.500 73.836 275.500 64.596 L 275.500 55.357 279.208 55.274 C 281.248 55.229,283.083 55.185,283.287 55.177 C 283.490 55.169,283.865 55.076,284.120 54.972 C 284.375 54.867,284.755 54.752,284.965 54.717 C 285.175 54.682,285.512 54.590,285.715 54.513 C 285.917 54.436,286.158 54.356,286.250 54.335 C 286.436 54.293,287.918 53.500,288.868 52.935 C 289.208 52.733,289.639 52.391,289.826 52.175 C 290.013 51.959,290.167 51.848,290.167 51.929 C 290.167 52.661,293.581 48.347,294.486 46.472 C 295.711 43.931,296.342 37.020,295.503 35.333 C 295.480 35.287,295.449 35.175,295.434 35.083 C 295.344 34.527,295.101 33.703,294.945 33.417 C 294.844 33.233,294.758 33.046,294.754 33.000 C 294.694 32.365,292.721 29.113,292.484 29.260 C 292.401 29.311,292.333 29.244,292.333 29.112 C 292.333 28.917,291.326 27.849,290.105 26.747 C 289.524 26.222,288.430 25.524,288.308 25.599 C 288.230 25.647,288.167 25.610,288.167 25.517 C 288.167 25.169,285.817 24.234,283.514 23.664 C 282.362 23.378,261.923 23.456,262.162 23.745 M300.686 24.125 C 302.060 25.050,302.209 25.184,302.709 25.955 L 303.167 26.660 303.167 50.356 L 303.167 74.053 302.193 75.027 C 301.658 75.562,301.264 76.002,301.318 76.004 C 301.372 76.006,301.098 76.152,300.708 76.329 C 300.319 76.506,300.000 76.692,300.000 76.742 C 300.000 76.792,307.612 76.833,316.917 76.833 L 333.833 76.833 333.833 70.071 C 333.833 62.749,333.879 63.038,332.950 64.467 C 332.694 64.861,332.342 65.306,332.167 65.455 C 331.993 65.604,331.896 65.806,331.952 65.905 C 332.008 66.003,331.996 66.031,331.925 65.968 C 331.854 65.904,331.506 66.036,331.152 66.259 L 330.507 66.667 322.003 66.667 L 313.500 66.667 313.500 61.000 L 313.500 55.333 321.750 55.333 L 330.000 55.333 330.000 50.167 L 330.000 45.000 321.750 45.000 L 313.500 45.000 313.500 39.417 L 313.500 33.833 322.105 33.833 C 330.696 33.833,330.712 33.834,331.308 34.202 C 332.012 34.638,332.500 35.101,332.500 35.333 C 332.500 35.425,332.561 35.500,332.636 35.500 C 332.711 35.500,332.939 35.798,333.144 36.162 C 333.348 36.526,333.587 36.868,333.675 36.922 C 333.774 36.983,333.833 34.501,333.833 30.260 L 333.833 23.500 316.795 23.500 L 299.757 23.500 300.686 24.125 M339.000 23.620 C 339.000 23.696,339.270 23.903,339.600 24.081 C 340.311 24.464,341.302 25.384,341.758 26.083 C 342.078 26.575,342.082 26.984,342.000 50.477 L 341.917 74.371 341.083 75.126 C 340.625 75.541,339.950 76.076,339.583 76.315 L 338.917 76.750 343.137 76.795 C 345.458 76.819,349.208 76.819,351.470 76.795 L 355.583 76.750 354.833 76.267 C 354.421 76.001,354.058 75.720,354.028 75.642 C 353.997 75.564,353.885 75.499,353.778 75.498 C 353.671 75.497,353.302 75.091,352.958 74.596 L 352.333 73.695 352.353 64.556 C 352.363 59.529,352.409 55.567,352.454 55.750 C 352.499 55.933,352.595 56.158,352.668 56.250 C 352.741 56.342,353.549 57.894,354.464 59.700 C 355.379 61.506,356.174 62.937,356.231 62.880 C 356.287 62.824,356.333 62.900,356.333 63.048 C 356.333 63.197,356.775 64.166,357.314 65.201 C 357.854 66.236,358.950 68.358,359.752 69.917 C 362.960 76.158,362.821 75.660,361.550 76.333 L 360.763 76.750 364.620 76.795 C 366.741 76.819,370.258 76.819,372.434 76.795 L 376.392 76.750 375.238 75.902 C 373.971 74.972,374.327 75.542,371.206 69.442 C 370.449 67.961,369.750 66.771,369.652 66.796 C 369.555 66.821,369.524 66.763,369.583 66.667 C 369.643 66.571,369.399 65.950,369.041 65.288 C 368.683 64.625,368.315 63.933,368.223 63.750 C 368.043 63.392,367.506 62.335,365.769 58.917 C 365.163 57.725,364.597 56.637,364.510 56.500 C 364.424 56.362,364.125 55.782,363.847 55.211 L 363.341 54.172 364.129 53.815 C 366.109 52.917,369.536 50.129,369.242 49.654 C 369.167 49.533,369.184 49.491,369.282 49.552 C 369.374 49.608,369.790 49.151,370.207 48.536 C 373.839 43.175,373.610 34.259,369.718 29.500 C 368.759 28.327,366.854 26.533,366.145 26.134 C 365.790 25.935,365.500 25.706,365.500 25.626 C 365.500 25.546,365.425 25.527,365.333 25.583 C 365.242 25.640,365.167 25.621,365.167 25.541 C 365.167 25.367,364.093 24.833,363.744 24.833 C 363.610 24.833,363.500 24.765,363.500 24.682 C 363.500 24.599,363.069 24.404,362.542 24.248 C 362.015 24.093,361.358 23.881,361.083 23.779 C 360.488 23.556,339.000 23.402,339.000 23.620 M206.750 34.264 C 207.720 34.727,208.635 35.676,209.191 36.793 L 209.583 37.583 209.628 49.996 C 209.679 63.944,209.729 63.314,208.442 64.776 C 206.195 67.329,201.460 67.274,199.524 64.673 C 199.283 64.349,199.045 64.046,198.996 64.000 C 198.332 63.377,197.916 39.838,198.532 37.750 C 198.640 37.383,198.740 37.046,198.753 37.000 C 198.993 36.191,200.363 34.707,201.238 34.308 C 201.468 34.204,201.625 34.068,201.587 34.006 C 201.366 33.648,205.940 33.876,206.750 34.264 M244.119 34.104 C 248.408 35.560,248.764 42.370,244.667 44.587 C 244.166 44.858,243.631 44.911,240.875 44.964 L 237.667 45.025 237.667 39.429 L 237.667 33.833 240.494 33.833 C 242.665 33.833,243.507 33.896,244.119 34.104 M282.583 34.234 C 285.915 35.708,286.554 40.934,283.750 43.769 C 282.712 44.818,282.334 44.910,278.792 44.970 L 275.500 45.025 275.500 39.414 L 275.500 33.803 278.708 33.871 C 281.310 33.926,282.043 33.994,282.583 34.234 M359.292 34.125 C 359.330 34.240,359.505 34.333,359.681 34.333 C 359.856 34.333,360.000 34.408,360.000 34.500 C 360.000 34.592,360.056 34.648,360.125 34.625 C 360.368 34.544,361.657 36.115,362.014 36.927 C 362.580 38.212,362.536 40.925,361.929 42.197 C 361.665 42.751,360.612 44.000,360.409 44.000 C 360.350 44.000,360.067 44.167,359.781 44.371 C 359.063 44.882,359.132 44.872,355.542 44.953 L 352.333 45.025 352.333 39.412 L 352.333 33.799 355.778 33.858 C 358.342 33.902,359.240 33.970,359.292 34.125 M151.281 82.297 C 151.481 82.455,152.026 82.846,152.491 83.167 C 152.956 83.487,153.559 84.092,153.831 84.509 L 154.327 85.269 154.337 91.843 C 154.348 98.676,154.614 101.758,155.163 101.419 C 155.240 101.372,155.264 101.478,155.218 101.655 C 155.172 101.832,155.245 102.188,155.380 102.447 C 155.516 102.705,155.839 103.348,156.099 103.875 C 156.358 104.402,156.630 104.833,156.702 104.833 C 156.774 104.833,156.833 104.935,156.833 105.059 C 156.833 105.183,157.021 105.487,157.250 105.734 C 157.479 105.982,157.667 106.223,157.667 106.270 C 157.667 106.498,159.699 108.434,160.586 109.052 C 161.973 110.017,162.156 110.130,162.930 110.499 C 163.303 110.678,163.791 110.963,164.013 111.134 C 164.235 111.304,164.754 111.625,165.167 111.847 C 165.579 112.069,165.954 112.295,166.000 112.350 C 166.101 112.472,167.422 113.252,168.000 113.532 C 168.229 113.643,168.610 113.865,168.847 114.025 C 169.419 114.412,172.046 115.939,173.049 116.467 C 173.894 116.912,175.107 118.050,175.264 118.544 C 175.317 118.711,175.443 118.789,175.554 118.726 C 175.662 118.664,175.704 118.665,175.647 118.729 C 175.590 118.793,175.628 119.274,175.730 119.798 C 175.833 120.321,175.894 121.747,175.866 122.966 L 175.815 125.182 171.990 125.157 C 169.887 125.144,168.129 125.074,168.084 125.002 C 168.040 124.929,167.814 124.823,167.582 124.765 C 165.864 124.333,164.822 122.471,164.706 119.625 L 164.626 117.667 159.469 117.667 L 154.312 117.667 154.350 120.099 C 154.383 122.313,154.707 124.557,155.078 125.159 C 155.137 125.254,155.214 125.482,155.250 125.664 C 155.359 126.231,156.502 128.423,156.929 128.882 C 157.151 129.122,157.333 129.387,157.333 129.470 C 157.333 129.631,159.355 131.743,159.917 132.169 C 160.100 132.309,160.519 132.627,160.848 132.877 C 161.177 133.127,161.496 133.282,161.556 133.221 C 161.617 133.161,161.667 133.192,161.667 133.291 C 161.667 133.623,164.016 134.666,165.917 135.178 C 167.260 135.540,189.909 135.680,189.295 135.322 C 189.137 135.230,188.968 135.157,188.920 135.160 C 188.823 135.167,188.564 134.951,187.564 134.026 C 186.270 132.827,186.343 133.283,186.323 126.327 C 186.301 118.910,186.183 117.816,185.106 115.126 C 184.599 113.857,183.968 112.707,183.508 112.214 C 183.320 112.012,183.167 111.791,183.167 111.721 C 183.167 111.143,178.871 107.500,178.190 107.500 C 178.108 107.500,177.958 107.400,177.856 107.277 C 177.754 107.155,177.314 106.875,176.877 106.655 C 176.441 106.435,176.046 106.214,176.000 106.165 C 175.827 105.980,175.000 105.496,175.000 105.581 C 175.000 105.629,174.689 105.443,174.308 105.168 C 173.928 104.892,173.515 104.667,173.392 104.667 C 173.268 104.667,173.167 104.605,173.167 104.530 C 173.167 104.454,172.810 104.216,172.375 104.000 C 171.940 103.784,171.384 103.462,171.141 103.284 C 170.885 103.097,170.610 103.015,170.490 103.089 C 170.355 103.173,170.324 103.150,170.401 103.025 C 170.471 102.913,170.394 102.783,170.219 102.717 C 170.053 102.655,169.542 102.366,169.083 102.075 C 168.625 101.784,168.081 101.493,167.875 101.429 C 167.669 101.364,167.500 101.228,167.500 101.128 C 167.500 101.027,167.456 100.988,167.403 101.042 C 167.349 101.095,167.143 101.014,166.944 100.861 C 166.407 100.448,164.996 98.948,165.072 98.872 C 165.109 98.836,165.041 98.569,164.922 98.278 C 164.781 97.933,164.695 96.814,164.676 95.042 L 164.646 92.333 167.712 92.333 C 171.628 92.333,173.501 92.724,174.081 93.663 C 174.141 93.760,174.260 93.796,174.345 93.743 C 174.430 93.690,174.500 93.760,174.500 93.899 C 174.500 94.037,174.603 94.210,174.728 94.283 C 175.409 94.681,175.859 96.268,175.892 98.394 L 175.917 99.917 181.133 99.961 L 186.349 100.005 186.322 98.211 C 186.295 96.468,186.014 94.188,185.680 93.000 C 185.366 91.883,185.084 91.167,184.959 91.167 C 184.890 91.167,184.833 91.052,184.833 90.913 C 184.833 90.681,183.780 88.890,183.169 88.084 C 182.276 86.905,179.651 84.560,179.042 84.397 C 178.835 84.342,178.667 84.239,178.667 84.168 C 178.667 84.097,178.535 83.994,178.375 83.938 C 178.215 83.883,177.858 83.692,177.583 83.514 C 177.308 83.336,176.931 83.186,176.745 83.179 C 176.560 83.172,176.260 83.067,176.079 82.946 C 175.721 82.706,174.529 82.419,172.833 82.165 C 170.682 81.842,150.857 81.964,151.281 82.297 M192.600 82.140 C 192.552 82.217,192.829 82.456,193.215 82.672 C 193.601 82.888,194.310 83.479,194.792 83.986 L 195.667 84.908 195.667 108.837 L 195.667 132.765 194.792 133.688 C 194.310 134.196,193.579 134.810,193.167 135.054 L 192.417 135.497 209.375 135.498 L 226.333 135.500 226.333 128.833 C 226.333 122.285,226.290 121.696,225.874 122.635 C 225.590 123.277,224.356 124.646,223.804 124.932 C 223.430 125.125,221.811 125.167,214.675 125.167 L 206.000 125.167 206.000 119.583 L 206.000 114.000 214.333 114.000 L 222.667 114.000 222.667 108.833 L 222.667 103.667 214.333 103.667 L 206.000 103.667 206.000 98.000 L 206.000 92.333 214.489 92.333 C 219.684 92.333,223.147 92.397,223.412 92.498 C 224.009 92.725,225.419 94.167,225.847 94.989 C 226.041 95.362,226.230 95.667,226.267 95.667 C 226.303 95.667,226.333 92.592,226.333 88.833 L 226.333 82.000 209.510 82.000 C 200.257 82.000,192.647 82.063,192.600 82.140 M231.500 82.250 C 231.614 82.387,231.808 82.500,231.931 82.500 C 232.054 82.500,232.645 82.971,233.244 83.547 C 233.843 84.123,234.341 84.555,234.350 84.506 C 234.562 83.372,234.636 89.440,234.650 108.853 C 234.666 132.215,234.663 132.459,234.333 132.879 C 234.150 133.112,234.000 133.350,234.000 133.409 C 234.000 133.584,233.196 134.333,233.008 134.333 C 232.912 134.333,232.833 134.400,232.833 134.481 C 232.833 134.562,232.574 134.752,232.257 134.902 C 231.940 135.053,231.636 135.249,231.581 135.338 C 231.516 135.442,234.427 135.500,239.740 135.500 C 247.836 135.500,248.744 135.441,247.565 134.993 C 247.326 134.902,246.651 134.348,246.065 133.763 L 245.000 132.698 245.000 119.422 C 245.000 110.062,245.052 106.179,245.178 106.257 C 245.276 106.317,245.315 106.407,245.265 106.457 C 245.216 106.506,245.278 106.742,245.404 106.982 C 245.529 107.221,245.842 107.942,246.098 108.583 C 246.355 109.225,246.626 109.775,246.699 109.806 C 246.773 109.836,246.833 109.970,246.833 110.103 C 246.833 110.236,246.954 110.530,247.103 110.756 C 247.251 110.982,247.321 111.167,247.260 111.167 C 247.198 111.167,247.275 111.410,247.431 111.708 C 247.938 112.677,248.000 112.825,248.000 113.061 C 248.000 113.188,248.110 113.384,248.245 113.496 C 248.379 113.607,248.480 113.748,248.468 113.808 C 248.456 113.868,248.524 114.104,248.620 114.333 C 248.715 114.563,248.806 114.825,248.821 114.917 C 248.837 115.008,248.947 115.233,249.067 115.417 C 249.186 115.600,249.565 116.462,249.909 117.333 C 250.252 118.204,250.617 119.067,250.719 119.250 C 250.821 119.433,250.914 119.621,250.925 119.667 C 250.936 119.712,251.026 119.938,251.125 120.167 C 251.224 120.396,251.530 121.108,251.803 121.750 C 252.077 122.392,252.728 123.892,253.249 125.083 C 253.771 126.275,254.384 127.700,254.613 128.250 C 254.841 128.800,255.166 129.550,255.335 129.917 C 255.505 130.283,255.839 131.033,256.079 131.583 C 256.319 132.133,256.628 132.790,256.767 133.042 C 256.905 133.294,256.968 133.500,256.906 133.500 C 256.843 133.500,256.894 133.623,257.019 133.773 C 257.143 133.923,257.252 134.129,257.261 134.231 C 257.271 134.333,257.382 134.660,257.509 134.958 L 257.740 135.500 265.037 135.500 C 269.050 135.500,272.333 135.464,272.333 135.420 C 272.333 135.376,272.052 135.192,271.708 135.011 C 271.026 134.651,269.706 133.437,269.375 132.865 C 269.211 132.581,269.167 127.455,269.167 108.775 L 269.167 85.046 269.681 84.398 C 270.287 83.634,270.768 83.168,270.951 83.164 C 271.024 83.163,271.383 82.903,271.750 82.587 L 272.417 82.013 264.028 82.006 C 255.420 82.000,255.010 82.031,256.165 82.612 C 256.851 82.957,258.001 84.009,258.423 84.677 L 258.833 85.327 258.825 98.455 L 258.816 111.583 258.400 110.750 C 258.172 110.292,257.681 109.167,257.311 108.250 C 256.940 107.333,256.580 106.508,256.510 106.417 C 256.440 106.325,256.075 105.500,255.700 104.583 C 254.952 102.755,253.796 100.035,253.433 99.250 C 253.307 98.975,253.089 98.487,252.949 98.167 C 252.810 97.846,252.464 97.075,252.181 96.454 C 251.898 95.833,251.667 95.291,251.667 95.250 C 251.667 95.165,250.945 93.532,250.529 92.676 C 250.376 92.360,250.269 92.041,250.292 91.967 C 250.315 91.894,250.258 91.833,250.167 91.833 C 250.075 91.833,250.012 91.777,250.026 91.708 C 250.054 91.580,249.989 91.399,249.502 90.250 C 249.346 89.883,249.123 89.340,249.006 89.042 C 248.889 88.744,248.729 88.500,248.652 88.500 C 248.574 88.500,248.554 88.388,248.606 88.250 C 248.659 88.112,248.619 88.000,248.518 88.000 C 248.416 88.000,248.333 87.864,248.333 87.698 C 248.333 87.532,248.193 87.101,248.022 86.740 C 247.694 86.049,247.248 85.034,246.964 84.333 C 246.871 84.104,246.728 83.804,246.646 83.667 C 246.495 83.412,246.432 83.264,246.131 82.458 L 245.960 82.000 238.626 82.000 C 232.126 82.000,231.316 82.028,231.500 82.250 M275.000 88.833 C 275.000 92.592,275.031 95.667,275.070 95.667 C 275.108 95.667,275.311 95.385,275.521 95.042 C 276.032 94.204,277.674 92.485,277.855 92.597 C 277.935 92.646,278.000 92.607,278.000 92.510 C 278.000 92.390,279.419 92.333,282.417 92.333 L 286.833 92.333 286.833 112.375 L 286.832 132.417 286.179 133.277 C 285.820 133.751,285.577 134.194,285.638 134.262 C 285.700 134.331,285.659 134.335,285.548 134.271 C 285.437 134.207,285.199 134.301,285.020 134.480 C 284.841 134.659,284.651 134.762,284.597 134.708 C 284.544 134.655,284.500 134.699,284.500 134.806 C 284.500 134.912,284.397 135.000,284.270 135.000 C 284.144 135.000,283.947 135.112,283.833 135.250 C 283.649 135.472,284.573 135.500,291.980 135.500 C 296.574 135.500,300.333 135.470,300.333 135.433 C 300.333 135.395,300.015 135.178,299.625 134.948 C 298.852 134.494,297.500 133.272,297.500 133.027 C 297.500 132.943,297.406 132.796,297.292 132.701 C 297.127 132.564,297.092 128.348,297.126 112.431 L 297.169 92.333 301.434 92.333 C 305.548 92.333,305.717 92.346,306.224 92.698 C 306.949 93.200,307.744 93.890,307.781 94.049 C 307.831 94.265,308.743 95.666,308.833 95.666 C 308.879 95.666,308.917 92.592,308.917 88.833 L 308.917 82.000 291.958 82.000 L 275.000 82.000 275.000 88.833 M327.500 82.252 C 325.313 82.576,322.508 83.658,321.662 84.505 C 321.481 84.686,321.333 84.790,321.333 84.738 C 321.333 84.591,320.521 85.259,319.392 86.335 C 318.828 86.872,318.410 87.354,318.461 87.406 C 318.513 87.458,318.468 87.500,318.361 87.500 C 317.770 87.500,315.167 92.132,315.167 93.183 C 315.167 93.370,315.101 93.648,315.021 93.803 C 314.716 94.393,314.672 96.946,314.670 114.523 L 314.667 132.629 313.624 133.690 C 313.050 134.273,312.281 134.915,311.915 135.118 L 311.250 135.485 319.708 135.493 C 324.360 135.497,328.167 135.470,328.167 135.433 C 328.167 135.395,327.847 135.178,327.456 134.949 C 327.065 134.719,326.353 134.117,325.873 133.609 L 325.000 132.687 325.000 124.677 L 325.000 116.667 330.000 116.667 L 335.000 116.667 334.995 124.542 L 334.990 132.417 334.579 133.083 C 334.353 133.450,334.168 133.702,334.168 133.644 C 334.167 133.586,333.848 133.830,333.458 134.186 C 333.069 134.542,332.705 134.833,332.651 134.833 C 332.596 134.833,332.378 134.983,332.167 135.167 L 331.782 135.500 340.068 135.500 C 344.625 135.500,348.316 135.440,348.271 135.367 C 348.225 135.294,347.827 134.985,347.386 134.681 C 346.944 134.377,346.302 133.781,345.958 133.356 L 345.333 132.585 345.333 108.880 C 345.333 85.838,345.342 85.160,345.652 84.651 C 345.999 84.080,347.292 82.950,348.040 82.563 C 348.299 82.429,348.467 82.247,348.412 82.160 C 348.257 81.908,329.252 81.992,327.500 82.252 M351.333 82.165 C 351.333 82.255,351.652 82.527,352.042 82.768 C 352.431 83.009,353.106 83.574,353.541 84.023 L 354.331 84.839 354.374 108.756 L 354.417 132.674 353.750 133.462 C 353.384 133.895,353.046 134.271,353.000 134.296 C 352.954 134.321,352.504 134.600,352.000 134.917 L 351.083 135.492 359.458 135.496 C 364.065 135.498,367.833 135.437,367.833 135.360 C 367.833 135.240,367.335 134.945,366.967 134.848 C 366.793 134.801,365.688 133.673,365.232 133.075 L 364.833 132.552 364.833 108.833 L 364.833 85.115 365.289 84.516 C 365.907 83.702,366.511 83.130,367.050 82.847 C 367.298 82.717,367.500 82.548,367.500 82.472 C 367.500 82.396,367.613 82.333,367.750 82.333 C 367.887 82.333,368.000 82.258,368.000 82.167 C 368.000 82.058,365.111 82.000,359.667 82.000 C 354.293 82.000,351.333 82.058,351.333 82.165 M335.000 99.250 L 335.000 106.167 329.992 106.167 L 324.985 106.167 325.009 101.075 C 325.036 95.313,325.014 95.417,326.507 93.865 C 327.654 92.673,328.853 92.367,332.458 92.347 L 335.000 92.333 335.000 99.250 " stroke="none" fill="#fc9c04" fill-rule="evenodd"></path><path id="path1" d="M63.167 23.775 C 60.646 24.254,60.055 24.386,58.667 24.783 C 57.887 25.005,57.063 25.252,56.833 25.331 C 55.936 25.640,54.050 26.376,53.417 26.664 C 53.050 26.831,52.450 27.102,52.083 27.267 C 47.179 29.473,40.099 35.253,36.487 40.000 C 36.173 40.412,35.871 40.787,35.814 40.833 C 35.646 40.971,33.167 44.493,33.167 44.595 C 33.167 44.647,32.953 45.003,32.692 45.387 C 31.841 46.635,29.523 51.014,28.953 52.451 C 28.800 52.837,28.532 53.474,28.357 53.868 C 28.182 54.261,27.947 54.846,27.835 55.167 C 27.722 55.487,27.461 56.200,27.255 56.750 C 26.521 58.703,25.991 60.404,25.668 61.833 C 25.596 62.154,25.462 62.642,25.370 62.917 C 25.278 63.192,25.114 63.867,25.006 64.417 C 24.898 64.967,24.745 65.679,24.665 66.000 C 24.490 66.706,24.101 69.151,23.803 71.417 C 23.500 73.714,23.500 85.286,23.803 87.583 C 24.101 89.849,24.490 92.294,24.665 93.000 C 24.745 93.321,24.898 94.033,25.006 94.583 C 25.114 95.133,25.278 95.808,25.370 96.083 C 25.462 96.358,25.596 96.846,25.668 97.167 C 25.999 98.634,26.553 100.398,27.263 102.250 C 27.474 102.800,27.757 103.590,27.892 104.006 C 28.497 105.865,30.731 110.391,32.503 113.349 C 33.884 115.655,37.209 120.167,37.527 120.167 C 37.604 120.167,37.669 120.260,37.671 120.375 C 37.683 120.918,43.984 126.770,45.969 128.082 C 46.307 128.305,46.883 128.700,47.250 128.960 C 47.910 129.428,51.030 131.237,51.833 131.618 C 54.044 132.667,56.382 133.593,57.833 133.997 C 58.246 134.111,58.771 134.272,59.000 134.353 C 59.465 134.517,60.232 134.676,62.917 135.163 C 65.312 135.599,72.359 135.649,74.441 135.247 C 75.161 135.107,76.200 134.912,76.750 134.812 C 77.300 134.713,78.050 134.535,78.417 134.416 C 78.783 134.298,79.421 134.109,79.833 133.996 C 80.968 133.685,82.064 133.295,82.242 133.139 C 82.329 133.063,82.502 133.000,82.627 133.000 C 82.752 133.000,83.243 132.823,83.719 132.606 C 84.194 132.389,84.957 132.043,85.414 131.837 C 86.137 131.510,86.888 131.101,89.083 129.837 C 89.654 129.509,90.833 128.740,91.088 128.531 C 91.182 128.453,91.482 128.248,91.754 128.074 C 92.027 127.900,92.287 127.717,92.333 127.666 C 92.379 127.616,92.754 127.314,93.166 126.996 C 94.419 126.028,94.511 125.950,95.649 124.917 C 98.148 122.645,100.716 119.827,102.216 117.711 C 102.591 117.183,102.942 116.712,102.997 116.667 C 104.011 115.814,108.142 108.231,109.579 104.583 C 109.832 103.942,110.101 103.267,110.177 103.083 C 110.595 102.071,111.851 98.055,112.157 96.750 C 112.265 96.292,112.456 95.504,112.582 95.000 C 112.707 94.496,112.884 93.671,112.975 93.167 C 113.065 92.662,113.254 91.612,113.395 90.833 C 114.032 87.302,114.083 86.449,114.083 79.500 C 114.083 71.902,114.100 72.114,112.974 65.750 C 112.876 65.200,112.694 64.375,112.569 63.917 C 112.444 63.458,112.221 62.558,112.074 61.917 C 111.835 60.873,110.539 56.769,110.180 55.917 C 110.102 55.733,109.833 55.058,109.580 54.417 C 108.352 51.291,105.627 46.135,103.965 43.791 C 103.526 43.172,103.167 42.597,103.167 42.513 C 103.167 42.430,103.110 42.336,103.042 42.306 C 102.973 42.275,102.434 41.612,101.844 40.833 C 101.253 40.054,100.639 39.267,100.479 39.083 C 97.349 35.505,95.512 33.759,92.564 31.563 C 91.842 31.024,91.175 30.526,91.083 30.456 C 90.307 29.863,86.370 27.567,85.536 27.221 C 85.195 27.080,84.451 26.747,83.882 26.482 C 83.313 26.217,82.747 26.000,82.624 26.000 C 82.501 26.000,82.329 25.937,82.242 25.861 C 82.067 25.707,80.992 25.324,79.833 25.001 C 79.421 24.886,78.746 24.698,78.333 24.582 C 77.565 24.366,76.786 24.204,74.372 23.756 C 72.527 23.413,65.001 23.426,63.167 23.775 M25.962 74.720 C 27.169 75.471,31.009 77.325,33.282 78.254 C 36.302 79.489,35.792 79.298,38.583 80.237 C 40.075 80.739,42.347 81.411,43.417 81.668 C 43.875 81.778,44.587 81.963,45.000 82.079 C 45.413 82.195,46.125 82.369,46.583 82.466 C 47.042 82.564,47.942 82.755,48.583 82.893 C 51.032 83.417,55.661 84.095,59.750 84.529 C 62.470 84.818,75.530 84.818,78.250 84.529 C 86.089 83.697,92.196 82.498,98.250 80.603 C 100.159 80.005,102.867 79.041,103.206 78.839 C 103.365 78.744,103.576 78.667,103.675 78.667 C 103.773 78.667,104.243 78.488,104.719 78.269 C 105.194 78.051,105.920 77.732,106.331 77.561 C 106.742 77.390,108.289 76.642,109.768 75.898 L 112.457 74.546 112.562 75.547 C 112.786 77.687,112.700 79.022,112.333 79.118 C 112.150 79.166,112.000 79.272,112.000 79.353 C 112.000 79.434,111.918 79.500,111.817 79.500 C 111.717 79.500,111.436 79.640,111.192 79.811 C 110.460 80.325,105.986 82.654,104.333 83.380 C 102.435 84.215,100.234 85.088,99.000 85.497 C 98.221 85.755,97.396 86.039,97.167 86.128 C 96.938 86.218,96.450 86.381,96.083 86.492 C 94.240 87.049,94.001 87.206,94.001 87.857 C 94.000 88.467,94.195 88.664,94.805 88.669 C 95.422 88.675,101.105 86.739,102.948 85.896 C 103.424 85.678,103.858 85.500,103.913 85.500 C 104.198 85.500,110.379 82.468,110.833 82.106 C 111.315 81.721,112.523 81.134,112.624 81.235 C 112.751 81.362,112.361 85.237,112.172 85.725 C 112.096 85.922,111.916 86.458,111.774 86.917 C 109.914 92.896,105.140 99.426,99.833 103.249 C 99.329 103.613,98.818 104.005,98.696 104.122 C 98.575 104.238,98.421 104.333,98.353 104.333 C 98.285 104.333,98.079 104.474,97.895 104.645 C 97.388 105.118,94.458 106.843,92.583 107.773 C 91.161 108.478,90.223 108.882,87.333 110.032 C 86.382 110.411,83.367 111.316,82.000 111.633 C 78.950 112.341,79.211 112.292,75.333 112.869 C 73.413 113.155,64.246 113.154,62.333 112.868 C 61.554 112.751,60.354 112.576,59.667 112.478 C 58.979 112.379,58.004 112.199,57.500 112.078 C 56.996 111.956,56.208 111.771,55.750 111.668 C 53.441 111.145,49.811 109.942,47.885 109.062 C 47.410 108.844,46.975 108.667,46.919 108.667 C 46.525 108.667,40.290 105.219,40.000 104.841 C 39.954 104.781,39.633 104.560,39.287 104.350 C 38.941 104.139,38.566 103.881,38.454 103.775 C 38.342 103.670,37.950 103.360,37.583 103.088 C 36.264 102.107,33.040 99.020,31.747 97.500 C 30.729 96.304,28.903 93.647,28.211 92.355 C 27.099 90.280,26.607 89.173,26.108 87.623 C 25.317 85.162,25.186 84.541,25.073 82.706 L 24.957 80.829 26.990 82.001 C 29.174 83.260,32.182 84.744,34.500 85.707 C 34.729 85.802,35.142 85.977,35.417 86.096 C 35.953 86.329,38.700 87.324,39.678 87.641 C 40.901 88.036,41.500 87.816,41.500 86.971 C 41.500 86.422,41.151 86.209,39.225 85.584 C 38.506 85.350,37.785 85.085,37.623 84.994 C 37.462 84.903,36.978 84.709,36.548 84.563 C 36.118 84.417,35.351 84.109,34.842 83.879 C 34.333 83.648,33.654 83.347,33.333 83.209 C 32.289 82.760,29.163 81.169,28.493 80.746 C 28.134 80.519,27.797 80.333,27.745 80.333 C 27.693 80.333,27.240 80.071,26.739 79.750 C 26.237 79.429,25.778 79.167,25.718 79.167 C 25.335 79.167,25.000 78.551,25.001 77.849 C 25.002 76.835,25.199 74.333,25.278 74.333 C 25.312 74.333,25.620 74.507,25.962 74.720 M71.417 126.123 C 74.035 126.749,76.306 128.645,77.265 131.006 C 78.059 132.960,78.062 132.957,73.917 133.701 C 72.387 133.975,65.331 133.968,63.750 133.691 C 59.748 132.988,59.775 133.005,60.252 131.431 C 60.980 129.033,64.160 126.221,66.220 126.155 C 66.420 126.149,66.733 126.076,66.917 125.993 C 67.322 125.810,70.492 125.901,71.417 126.123 " stroke="none" fill="#d3041b" fill-rule="evenodd"></path><path id="path2" d="M362.379 39.333 C 362.379 39.746,362.411 39.915,362.451 39.708 C 362.491 39.502,362.491 39.165,362.451 38.958 C 362.411 38.752,362.379 38.921,362.379 39.333 M308.909 88.917 C 308.909 92.583,308.931 94.060,308.958 92.197 C 308.985 90.335,308.985 87.335,308.958 85.531 C 308.931 83.726,308.909 85.250,308.909 88.917 M334.910 99.250 C 334.910 103.100,334.932 104.651,334.958 102.697 C 334.985 100.743,334.985 97.593,334.958 95.697 C 334.931 93.801,334.910 95.400,334.910 99.250 M334.910 124.583 C 334.910 128.983,334.932 130.759,334.958 128.530 C 334.984 126.301,334.984 122.701,334.958 120.530 C 334.932 118.359,334.910 120.183,334.910 124.583 " stroke="none" fill="#fca404" fill-rule="evenodd"></path><path id="path3" d="" stroke="none" fill="#e4a010" fill-rule="evenodd"></path></g></svg>