<svg id="svg" version="1.1" xmlns="http://www.w3.org/2000/svg" xmlns:xlink="http://www.w3.org/1999/xlink" width="400" height="207.77604976671853" viewBox="0, 0, 400,207.77604976671853"><g id="svgg"><path id="path0" d="M31.208 6.451 C 20.850 7.943,11.928 16.415,9.285 27.268 L 8.831 29.134 8.718 62.208 L 8.605 95.283 8.092 96.008 C 7.412 96.969,5.820 98.415,4.379 99.382 L 3.214 100.163 22.084 100.101 L 40.954 100.039 42.924 99.466 C 49.349 97.596,56.058 92.368,59.068 86.884 C 61.750 81.999,62.620 78.410,62.622 72.214 L 62.623 68.844 53.603 68.844 L 44.583 68.844 44.581 71.177 C 44.578 75.575,43.987 77.443,41.943 79.514 C 39.598 81.891,37.974 82.322,31.387 82.322 L 26.750 82.322 26.750 57.346 C 26.750 30.942,26.744 31.108,27.730 29.151 C 30.417 23.818,37.253 22.636,41.726 26.732 C 43.879 28.703,44.579 30.804,44.581 35.303 L 44.583 37.740 53.631 37.740 L 62.679 37.740 62.559 33.437 C 62.366 26.546,61.331 22.965,58.168 18.254 C 52.183 9.338,42.027 4.892,31.208 6.451 M90.754 6.448 C 80.236 7.985,71.052 16.703,68.712 27.372 C 68.135 30.002,68.112 76.256,68.687 78.914 C 70.962 89.439,79.528 97.944,89.759 99.835 C 92.101 100.268,100.489 100.283,102.709 99.858 C 113.366 97.819,122.232 88.670,123.915 77.976 C 124.483 74.369,124.242 29.074,123.643 26.833 C 119.748 12.261,106.627 4.129,90.754 6.448 M132.667 6.992 C 134.113 7.866,136.026 9.653,136.779 10.831 L 137.273 11.604 137.273 53.247 L 137.273 94.890 136.683 95.812 C 135.945 96.964,134.163 98.600,132.692 99.475 L 131.571 100.142 146.173 100.149 L 160.776 100.156 159.756 99.493 C 158.118 98.430,156.837 97.302,156.048 96.228 L 155.314 95.227 155.314 78.718 L 155.314 62.208 161.093 62.208 C 168.782 62.208,171.641 61.706,175.886 59.611 C 187.238 54.007,193.131 41.517,190.701 28.209 C 188.969 18.725,181.735 10.382,172.732 7.483 C 169.051 6.298,170.004 6.348,149.926 6.275 L 131.371 6.208 132.667 6.992 M199.922 7.232 C 201.378 8.194,202.609 9.341,203.595 10.655 L 204.044 11.253 204.044 53.181 L 204.044 95.108 203.396 96.086 C 202.677 97.171,201.356 98.356,199.665 99.434 L 198.548 100.145 213.155 100.150 C 226.042 100.155,227.715 100.120,227.359 99.851 C 227.138 99.684,226.864 99.543,226.750 99.539 C 226.327 99.525,223.443 96.908,222.775 95.934 L 222.084 94.926 222.084 78.567 L 222.084 62.208 227.838 62.208 C 238.159 62.206,242.422 60.904,248.377 55.935 C 256.010 49.565,259.352 39.700,257.652 28.553 C 256.000 17.714,246.788 8.391,235.898 6.535 C 234.352 6.271,231.197 6.221,216.224 6.221 L 198.392 6.221 199.922 7.232 M265.422 6.320 C 265.422 6.375,265.819 6.621,266.304 6.867 C 267.488 7.467,269.389 9.134,270.288 10.358 L 271.021 11.357 271.021 53.237 L 271.021 95.117 270.371 96.029 C 270.013 96.531,269.336 97.297,268.867 97.731 C 268.121 98.421,267.573 98.821,265.912 99.884 C 265.612 100.076,272.168 100.134,295.231 100.143 L 324.935 100.156 324.935 88.440 C 324.935 81.996,324.891 76.724,324.838 76.724 C 324.784 76.724,324.402 77.260,323.988 77.916 C 323.049 79.403,321.590 80.946,320.384 81.726 L 319.463 82.322 304.262 82.322 L 289.062 82.322 289.062 72.265 L 289.062 62.208 303.681 62.208 L 318.300 62.208 318.300 53.188 L 318.300 44.168 303.681 44.168 L 289.062 44.168 289.062 34.215 L 289.062 24.261 304.377 24.261 L 319.693 24.261 320.500 24.800 C 321.778 25.655,322.610 26.531,323.728 28.201 C 324.301 29.057,324.806 29.795,324.852 29.843 C 324.898 29.890,324.935 24.595,324.935 18.075 L 324.935 6.221 295.179 6.221 C 278.813 6.221,265.422 6.266,265.422 6.320 M335.200 7.022 C 336.901 8.113,338.370 9.455,339.071 10.561 L 339.658 11.486 339.658 53.363 L 339.658 95.241 338.744 96.350 C 337.689 97.632,336.455 98.705,335.169 99.459 C 334.673 99.750,334.266 100.025,334.266 100.072 C 334.266 100.118,340.822 100.155,348.834 100.154 L 363.401 100.152 362.344 99.546 C 361.025 98.789,359.112 97.055,358.309 95.888 L 357.698 95.000 357.698 78.777 L 357.698 62.553 358.651 64.403 C 359.175 65.420,360.376 67.745,361.319 69.570 C 362.263 71.395,363.900 74.567,364.957 76.620 C 366.013 78.673,367.553 81.659,368.377 83.256 C 369.201 84.852,370.836 88.025,372.010 90.306 C 373.184 92.587,374.556 95.246,375.058 96.215 L 375.971 97.977 375.388 98.457 C 375.068 98.721,374.339 99.210,373.769 99.544 L 372.732 100.152 386.408 100.154 L 400.084 100.156 398.501 99.116 C 396.309 97.677,395.803 97.004,393.477 92.438 C 392.356 90.239,391.138 87.880,390.769 87.195 C 390.401 86.511,388.862 83.525,387.349 80.560 C 385.837 77.595,384.253 74.515,383.829 73.717 C 382.418 71.058,376.983 60.399,376.983 60.292 C 376.983 60.233,377.473 59.978,378.072 59.723 C 389.009 55.072,395.332 42.262,393.272 28.927 C 391.517 17.567,382.472 8.340,371.316 6.531 C 369.738 6.275,366.392 6.223,351.685 6.224 L 333.955 6.225 335.200 7.022 M101.240 25.146 C 103.117 26.074,104.390 27.382,105.387 29.407 L 106.065 30.784 106.065 53.288 L 106.065 75.791 105.504 76.989 C 101.798 84.897,88.749 83.902,86.572 75.546 C 86.009 73.384,86.118 32.143,86.691 30.441 C 88.147 26.118,91.217 24.229,96.642 24.317 L 99.660 24.366 101.240 25.146 M167.778 25.014 C 174.885 28.382,174.907 40.038,167.812 43.399 L 166.407 44.064 160.861 44.128 L 155.314 44.193 155.314 34.212 L 155.314 24.231 160.861 24.298 L 166.407 24.365 167.778 25.014 M234.735 25.026 C 242.393 28.774,241.615 41.415,233.575 43.854 C 232.788 44.093,231.361 44.164,227.320 44.166 L 222.084 44.168 222.084 34.200 L 222.084 24.232 227.735 24.298 L 233.385 24.365 234.735 25.026 M368.792 24.491 C 377.588 26.905,378.060 40.531,369.458 43.723 C 368.347 44.135,367.868 44.168,362.978 44.168 L 357.698 44.168 357.698 34.215 L 357.698 24.261 362.830 24.262 C 365.911 24.263,368.294 24.355,368.792 24.491 M3.110 109.643 C 3.110 109.728,3.532 110.022,4.047 110.295 C 5.097 110.853,7.420 112.905,8.136 113.909 L 8.605 114.567 8.725 126.698 C 8.868 141.154,8.959 141.826,11.484 147.019 C 14.415 153.047,17.446 155.850,27.061 161.427 C 28.201 162.088,31.140 163.817,33.593 165.269 C 36.045 166.720,39.215 168.589,40.638 169.422 C 43.792 171.269,44.992 172.352,45.881 174.156 L 46.553 175.521 46.618 180.568 L 46.683 185.615 39.982 185.550 L 33.281 185.485 31.913 184.815 C 28.253 183.024,26.764 180.209,26.755 175.065 L 26.750 172.317 17.701 172.317 L 8.653 172.317 8.770 176.516 C 9.079 187.576,13.861 195.642,23.121 200.720 C 28.328 203.576,28.853 203.630,51.485 203.624 L 70.607 203.620 69.512 202.982 C 68.156 202.191,66.319 200.531,65.527 199.379 L 64.929 198.510 64.850 186.502 C 64.776 175.245,64.744 174.376,64.339 172.594 C 62.520 164.591,58.148 158.683,50.907 154.444 C 47.520 152.461,42.086 149.253,37.636 146.611 C 35.013 145.053,32.310 143.463,31.630 143.077 C 27.705 140.852,26.901 139.086,26.792 132.452 L 26.711 127.527 32.277 127.531 C 40.388 127.537,41.830 127.889,44.276 130.453 C 46.211 132.481,46.531 133.428,46.655 137.481 L 46.760 140.902 55.832 140.956 L 64.904 141.010 64.902 138.157 C 64.893 122.705,55.275 111.275,40.954 109.696 C 38.778 109.456,3.110 109.406,3.110 109.643 M76.102 109.643 C 76.102 109.728,76.505 110.012,76.998 110.274 C 78.328 110.979,80.156 112.564,80.977 113.722 L 81.700 114.744 81.700 156.670 L 81.700 198.596 81.252 199.194 C 80.266 200.509,79.035 201.656,77.578 202.618 L 76.048 203.629 105.831 203.629 L 135.614 203.629 135.614 191.809 C 135.614 185.308,135.577 179.990,135.530 179.990 C 135.484 179.990,135.150 180.515,134.788 181.157 C 134.015 182.526,132.549 184.150,131.326 184.992 L 130.459 185.588 115.100 185.588 L 99.741 185.588 99.741 175.635 L 99.741 165.682 114.360 165.682 L 128.979 165.682 128.979 156.661 L 128.979 147.641 114.360 147.641 L 99.741 147.641 99.741 137.584 L 99.741 127.527 114.946 127.527 L 130.152 127.527 131.069 128.142 C 132.766 129.281,134.198 130.905,135.372 133.022 C 135.542 133.330,135.603 130.342,135.608 121.462 L 135.614 109.487 105.858 109.487 C 89.492 109.487,76.102 109.557,76.102 109.643 M144.738 109.694 C 144.738 109.808,144.831 109.902,144.943 109.902 C 145.648 109.902,148.607 112.409,149.592 113.841 L 150.337 114.925 150.337 156.568 C 150.337 181.072,150.259 198.408,150.148 198.690 C 149.798 199.582,147.830 201.544,146.237 202.590 L 144.654 203.629 159.357 203.629 L 174.060 203.629 172.619 202.684 C 170.865 201.535,169.763 200.508,168.973 199.285 L 168.377 198.364 168.386 174.817 C 168.392 154.888,168.437 151.366,168.673 151.892 C 168.827 152.234,170.186 155.360,171.692 158.839 C 173.199 162.317,175.362 167.309,176.500 169.933 C 177.637 172.556,179.411 176.661,180.441 179.057 C 181.472 181.452,182.481 183.784,182.684 184.241 C 182.886 184.697,183.678 186.516,184.443 188.284 C 185.208 190.052,186.281 192.525,186.827 193.779 C 187.373 195.034,188.501 197.646,189.333 199.585 C 190.166 201.524,190.935 203.227,191.042 203.370 C 191.195 203.572,194.028 203.627,204.017 203.620 L 216.796 203.610 215.967 203.179 C 214.314 202.319,212.203 200.428,211.349 199.042 L 210.886 198.292 210.887 156.637 C 210.888 116.387,210.901 114.961,211.274 114.360 C 212.043 113.119,213.430 111.761,214.993 110.718 C 215.871 110.132,216.628 109.616,216.675 109.570 C 216.723 109.524,210.110 109.487,201.979 109.487 C 188.863 109.487,187.226 109.522,187.455 109.798 C 187.597 109.969,187.799 110.109,187.904 110.109 C 188.602 110.109,192.250 113.544,192.639 114.569 C 192.772 114.919,192.843 123.469,192.838 138.583 L 192.829 162.053 192.299 160.809 C 191.734 159.482,189.335 153.965,188.648 152.411 C 187.714 150.299,187.441 149.666,186.007 146.293 C 185.183 144.355,184.383 142.488,184.229 142.146 C 183.463 140.442,177.501 126.649,177.501 126.581 C 177.501 126.538,177.278 126.010,177.005 125.408 C 176.732 124.806,175.341 121.607,173.915 118.300 C 172.488 114.992,171.036 111.656,170.687 110.886 L 170.054 109.487 157.396 109.487 C 149.096 109.487,144.738 109.558,144.738 109.694 M221.463 121.461 L 221.463 133.437 221.877 132.758 C 222.105 132.385,222.291 131.999,222.291 131.902 C 222.291 131.555,225.107 128.688,226.013 128.113 L 226.934 127.527 234.566 127.527 L 242.198 127.527 242.198 163.000 L 242.198 198.474 241.581 199.370 C 240.829 200.463,239.394 201.762,237.759 202.829 L 236.535 203.629 251.238 203.617 C 262.698 203.607,265.855 203.550,265.550 203.357 C 263.096 201.809,261.477 200.370,260.637 198.993 C 260.250 198.357,260.240 197.459,260.239 162.934 L 260.238 127.527 267.817 127.527 C 276.127 127.527,275.818 127.486,277.492 128.831 C 278.425 129.580,279.987 131.536,280.482 132.574 C 280.681 132.992,280.921 133.333,281.015 133.333 C 281.109 133.333,281.161 127.991,281.132 121.462 L 281.078 109.590 251.270 109.538 L 221.462 109.485 221.463 121.461 M314.969 109.708 C 303.297 110.948,293.185 120.740,291.567 132.370 C 291.414 133.473,291.343 144.195,291.343 166.174 L 291.343 198.362 290.444 199.596 C 289.471 200.931,288.280 201.987,286.729 202.888 C 286.187 203.203,285.744 203.499,285.744 203.545 C 285.744 203.591,292.334 203.629,300.389 203.629 L 315.035 203.629 313.505 202.618 C 312.049 201.656,310.818 200.509,309.832 199.194 L 309.383 198.596 309.383 184.420 L 309.383 170.244 318.196 170.244 L 327.009 170.244 327.009 184.417 L 327.009 198.590 326.417 199.399 C 325.580 200.544,323.759 202.207,322.602 202.884 C 322.061 203.201,321.617 203.499,321.617 203.545 C 321.617 203.591,328.219 203.629,336.288 203.629 L 350.959 203.629 349.404 202.619 C 347.920 201.656,346.334 200.178,345.598 199.073 C 345.038 198.232,345.078 115.070,345.639 114.150 C 346.244 113.158,347.833 111.672,349.405 110.626 C 350.203 110.096,350.855 109.623,350.855 109.575 C 350.855 109.412,316.554 109.540,314.969 109.708 M355.838 109.642 C 355.842 109.728,356.411 110.123,357.104 110.520 C 358.517 111.329,360.342 112.991,360.996 114.065 L 361.429 114.774 361.430 156.614 L 361.431 198.453 360.940 199.230 C 360.277 200.281,358.189 202.186,356.835 202.975 L 355.728 203.620 370.399 203.624 C 378.468 203.627,385.070 203.591,385.070 203.545 C 385.070 203.499,384.627 203.202,384.085 202.886 C 382.591 202.015,381.405 200.960,380.390 199.598 L 379.471 198.367 379.471 156.658 L 379.471 114.949 380.110 113.985 C 380.889 112.809,382.462 111.368,383.950 110.468 C 384.559 110.100,385.061 109.728,385.064 109.642 C 385.067 109.557,378.491 109.487,370.451 109.487 C 362.411 109.487,355.835 109.557,355.838 109.642 M327.009 139.762 L 327.009 151.996 318.188 151.996 L 309.366 151.996 309.427 143.131 L 309.487 134.266 310.127 132.919 C 312.167 128.623,314.520 127.593,322.395 127.551 L 327.009 127.527 327.009 139.762 " stroke="none" fill="#b404fc" fill-rule="evenodd"></path><path id="path1" d="M299.313 117.211 L 298.704 117.885 299.378 117.276 C 300.006 116.708,300.147 116.537,299.987 116.537 C 299.951 116.537,299.648 116.840,299.313 117.211 M16.485 154.277 C 16.931 154.733,17.342 155.106,17.399 155.106 C 17.456 155.106,17.138 154.733,16.693 154.277 C 16.247 153.821,15.836 153.447,15.779 153.447 C 15.722 153.447,16.040 153.821,16.485 154.277 M289.258 200.881 L 288.543 201.659 289.321 200.944 C 290.045 200.279,290.194 200.104,290.035 200.104 C 290.001 200.104,289.651 200.454,289.258 200.881 " stroke="none" fill="#b804fc" fill-rule="evenodd"></path><path id="path2" d="M299.313 117.211 L 298.704 117.885 299.378 117.276 C 300.006 116.708,300.147 116.537,299.987 116.537 C 299.951 116.537,299.648 116.840,299.313 117.211 M16.485 154.277 C 16.931 154.733,17.342 155.106,17.399 155.106 C 17.456 155.106,17.138 154.733,16.693 154.277 C 16.247 153.821,15.836 153.447,15.779 153.447 C 15.722 153.447,16.040 153.821,16.485 154.277 M289.258 200.881 L 288.543 201.659 289.321 200.944 C 290.045 200.279,290.194 200.104,290.035 200.104 C 290.001 200.104,289.651 200.454,289.258 200.881 " stroke="none" fill="#b804fc" fill-rule="evenodd"></path><path id="path3" d="M299.313 117.211 L 298.704 117.885 299.378 117.276 C 300.006 116.708,300.147 116.537,299.987 116.537 C 299.951 116.537,299.648 116.840,299.313 117.211 M16.485 154.277 C 16.931 154.733,17.342 155.106,17.399 155.106 C 17.456 155.106,17.138 154.733,16.693 154.277 C 16.247 153.821,15.836 153.447,15.779 153.447 C 15.722 153.447,16.040 153.821,16.485 154.277 M289.258 200.881 L 288.543 201.659 289.321 200.944 C 290.045 200.279,290.194 200.104,290.035 200.104 C 290.001 200.104,289.651 200.454,289.258 200.881 " stroke="none" fill="#b804fc" fill-rule="evenodd"></path><path id="path4" d="M299.313 117.211 L 298.704 117.885 299.378 117.276 C 300.006 116.708,300.147 116.537,299.987 116.537 C 299.951 116.537,299.648 116.840,299.313 117.211 M16.485 154.277 C 16.931 154.733,17.342 155.106,17.399 155.106 C 17.456 155.106,17.138 154.733,16.693 154.277 C 16.247 153.821,15.836 153.447,15.779 153.447 C 15.722 153.447,16.040 153.821,16.485 154.277 M289.258 200.881 L 288.543 201.659 289.321 200.944 C 290.045 200.279,290.194 200.104,290.035 200.104 C 290.001 200.104,289.651 200.454,289.258 200.881 " stroke="none" fill="#b804fc" fill-rule="evenodd"></path></g></svg>